HIERARCHY
ROOT Hips
{
  OFFSET 0 0 0
  CHANNELS 6 Xposition Yposition Zposition Zrotation Yrotation Xrotation
  JOINT LeftThigh
  {
    OFFSET 8.409438 0 -5.917753
    CHANNELS 3 Zrotation Yrotation Xrotation
    JOINT LeftLeg
    {
      OFFSET 0 0 -42.358652
      CHANNELS 3 Zrotation Yrotation Xrotation
      JOINT LeftFoot
      {
        OFFSET 0 0 -39.357303
        CHANNELS 3 Zrotation Yrotation Xrotation
      }
    }
  }
  JOINT RightThigh
  {
    OFFSET -8.409438 0 -5.917753
    CHANNELS 3 Zrotation Yrotation Xrotation
    JOINT RightLeg
    {
      OFFSET 0 0 -42.358652
      CHANNELS 3 Zrotation Yrotation Xrotation
      JOINT RightFoot
      {
        OFFSET 0 0 -39.357303
        CHANNELS 3 Zrotation Yrotation Xrotation
      }
    }
  }
  JOINT SpineLow
  {
    OFFSET 0 0 4.719101
    CHANNELS 3 Zrotation Yrotation Xrotation
    JOINT SpineMid
    {
      OFFSET 0 0 12.899191
      CHANNELS 3 Zrotation Yrotation Xrotation
      JOINT Chest
      {
        OFFSET 0 0 12.899191
        CHANNELS 3 Zrotation Yrotation Xrotation
        JOINT LeftShoulder
        {
          OFFSET 7.550562 1.41573 9.438202
          CHANNELS 3 Zrotation Yrotation Xrotation
          JOINT LeftArm
          {
            OFFSET 9.155056 0 4.247191
            CHANNELS 3 Zrotation Yrotation Xrotation
            JOINT LeftForearm
            {
              OFFSET 0 0 25.771955
              CHANNELS 3 Zrotation Yrotation Xrotation
              JOINT LeftHand
              {
                OFFSET 0 0 25.197169
                CHANNELS 3 Zrotation Yrotation Xrotation
              }
            }
          }
        }
        JOINT RightShoulder
        {
          OFFSET -7.550562 1.41573 9.438202
          CHANNELS 3 Zrotation Yrotation Xrotation
          JOINT RightArm
          {
            OFFSET -9.155056 0 4.247191
            CHANNELS 3 Zrotation Yrotation Xrotation
            JOINT RightForearm
            {
              OFFSET 0 0 -25.771955
              CHANNELS 3 Zrotation Yrotation Xrotation
              JOINT RightHand
              {
                OFFSET 0 0 -25.197169
                CHANNELS 3 Zrotation Yrotation Xrotation
              }
            }
          }
        }
        JOINT Neck
        {
          OFFSET 0 0 15.101124
          CHANNELS 3 Zrotation Yrotation Xrotation
          JOINT Head
          {
            OFFSET 0 0 11.325843
            CHANNELS 3 Zrotation Yrotation Xrotation
            End Site
            {
              OFFSET 0 0 14.157303
            }
          }
        }
      }
    }
  }
}
MOTION
Frames: 10
Frame Time: 0.0
0.0  101.685394  0.0  115.353785  -49.221584  164.782997  34.375363  -30.521558  11.9217  1.326892  -3.363203  14.929758  -17.054567  -9.141831  -2.58089  2.363379  25.410752  -19.782338  6.12416  -1.833837  23.770771  19.471307  12.398442  3.077822  2.131193  3.188412  3.394632  6.292571  8.386945  9.600648  6.292572  8.386945  9.600649  3.445931  17.185351  10.080072  157.311458  41.425536  164.39015  -49.530565  28.093142  71.027267  59.19695  -40.855615  43.641131  21.390739  0.124263  17.227492  95.666456  53.810786  23.071722  -23.230936  -3.257414  -101.837461  84.789467  34.520163  15.281069  13.826803  15.110651  5.816198  10.163349  11.471493  3.98975  
0.0  101.685394  0.0  115.41134  -49.155808  164.782178  38.277444  -33.166117  9.593845  1.275026  -2.1622  16.852216  -18.112498  -9.288721  -3.012969  4.139197  26.235154  -19.65888  4.281338  -1.825025  24.341614  19.401998  12.096115  3.06332  2.210468  3.094689  3.420319  6.497503  8.117334  9.66926  6.497503  8.117334  9.669259  4.135825  17.588697  10.599146  157.988218  40.974334  164.596305  -49.495839  28.413394  70.822002  58.115786  -41.066259  44.502781  21.692804  -0.180453  18.005165  97.209294  54.392175  23.880149  -22.831509  -3.535469  -101.526306  84.892129  34.521545  14.993085  13.786764  15.503753  5.80134  10.126623  11.765697  3.968832  
0.0  101.685394  0.0  115.316423  -49.180512  164.781771  40.968972  -34.529098  7.410114  1.424033  -1.811951  19.381758  -18.599617  -9.431877  -3.37427  4.84488  26.739709  -19.761316  3.375466  -2.132173  24.795287  19.102594  11.966452  3.200936  2.305563  3.006859  3.519103  6.754885  7.853461  9.940233  6.754885  7.853462  9.940233  4.774003  17.915378  10.936894  158.513431  40.369973  164.887859  -49.285072  28.093646  71.030499  56.933941  -41.504224  45.425112  21.856575  -0.463262  18.409045  98.787252  54.996472  24.695647  -22.533156  -3.786993  -101.217664  85.011056  34.563148  14.487665  13.525857  15.802821  5.460166  9.935506  11.979749  3.712986  
0.0  101.685394  0.0  114.944907  -49.260687  164.891331  41.786074  -34.845653  5.744213  2.269895  -2.09095  22.40596  -18.747648  -9.548084  -3.586181  4.07065  26.853825  -20.226177  3.567847  -2.525418  25.315314  18.95922  11.971173  3.33707  2.464664  2.964621  3.687538  7.202228  7.694972  10.41439  7.202228  7.694972  10.41439  4.906589  17.889028  10.924213  159.015029  39.974135  165.304423  -48.701387  27.127046  71.211898  55.681616  -42.26948  46.24463  21.739879  -1.015801  18.526566  100.41151  55.720514  25.598808  -22.475982  -4.052757  -100.8882  85.16158  34.553676  14.023642  12.901598  15.781585  4.864818  9.486194  11.944983  3.286002  
0.0  101.685394  0.0  114.26809  -49.391825  165.331643  40.837753  -34.784031  4.504296  3.474258  -2.200967  25.811536  -18.248722  -9.584386  -3.628738  2.192003  26.939309  -20.532671  4.343412  -3.093431  25.34297  18.820478  12.010655  3.355235  2.669816  2.961578  3.89623  7.786169  7.628152  11.008517  7.78617  7.628152  11.008519  4.468768  17.48155  10.473933  159.378196  39.594846  165.594872  -47.918404  25.851718  71.325365  54.43052  -43.260817  47.004371  21.16336  -1.994478  18.065832  102.677277  56.224675  27.084415  -22.630445  -4.370326  -100.542854  85.24755  34.464586  13.790301  11.974516  15.464827  4.096072  8.820009  11.683972  2.744597  
0.0  101.685394  0.0  113.52926  -49.455969  165.822335  38.442566  -35.000842  3.860065  5.174719  -1.656225  29.577347  -17.391482  -9.510421  -3.68625  -0.687038  26.570455  -21.82192  5.880131  -3.515476  26.025421  18.908536  12.178262  3.367039  2.898125  2.960922  4.080144  8.430536  7.563205  11.537057  8.430535  7.563205  11.537057  3.9364  17.120315  10.170352  159.729531  39.277225  165.70653  -46.968255  24.663883  71.519293  53.313936  -44.204334  47.653401  20.69637  -2.878375  17.842962  104.762468  56.914755  28.377352  -22.83684  -4.84515  -100.204724  85.268109  34.301436  13.751091  11.109096  15.047334  3.53427  8.194684  11.354  2.356882  
0.0  101.685394  0.0  110.938627  -50.395953  168.170706  34.669733  -35.43061  2.860557  7.001033  -0.841581  33.211599  -16.334075  -9.36883  -3.830017  -6.281395  24.257222  -24.561531  8.295835  -3.461557  27.346325  19.049049  12.559565  3.422777  2.877719  2.821738  4.176634  8.357553  7.175886  11.777607  8.357553  7.175886  11.777607  3.842425  17.042708  10.087147  159.770523  39.33791  165.820372  -46.266679  23.795581  71.352675  52.383588  -44.967907  48.163426  20.551289  -3.640386  17.708643  106.914056  57.61338  29.698832  -22.981145  -5.51809  -99.876278  85.307993  34.12719  13.802648  10.543342  14.689333  3.165329  7.78621  11.075344  2.103058  
0.0  101.685394  0.0  109.804437  -50.167339  168.861365  31.995784  -35.06858  3.072176  8.295793  -0.100298  36.364625  -15.147434  -9.228634  -3.977396  -8.95857  23.699887  -25.297147  9.497385  -3.325227  27.955695  19.303743  12.900528  3.372979  2.920772  2.826348  4.314839  8.490264  7.162183  12.161026  8.490263  7.162184  12.161026  4.35159  17.132215  9.99014  159.800016  39.228002  165.710416  -45.638168  23.266497  71.175536  51.559423  -45.485976  48.630816  21.099366  -4.100549  17.799763  108.915401  58.429125  30.882771  -23.068824  -6.313462  -99.558245  85.408137  33.915846  13.900642  10.465771  14.481693  3.024139  7.734124  10.916687  2.003737  
0.0  101.685394  0.0  108.49584  -49.938146  169.752174  29.871304  -34.406913  2.930679  9.293407  0.565252  39.294013  -14.062641  -9.128785  -4.105597  -10.594258  23.649  -25.711294  9.283577  -3.280727  28.522527  19.494094  13.205167  3.405005  2.90017  2.816802  4.406867  8.441398  7.12789  12.409357  8.441398  7.127891  12.409358  5.063785  17.148156  9.973331  159.867097  38.940975  165.613292  -45.137266  22.89572  70.931467  50.86406  -45.796255  48.908582  21.882674  -4.42754  18.041573  110.823963  59.262263  32.004368  -23.09113  -6.971932  -99.272753  85.452731  33.636647  13.998543  10.665144  14.394282  3.111999  7.881741  10.853774  2.066276  
0.0  101.685394  0.0  106.875552  -49.778596  170.993441  27.724814  -34.084719  2.418751  10.544037  1.523131  42.277649  -13.238277  -8.997731  -4.154255  -11.559135  23.97326  -25.913441  8.684414  -3.245574  29.127221  19.508821  13.464982  3.425937  2.90651  2.795589  4.448823  8.45853  7.06348  12.521526  8.45853  7.06348  12.521525  5.544255  17.155247  10.135121  159.81981  38.799664  165.292451  -44.711245  22.509224  70.561572  50.140846  -46.177223  49.211579  22.28868  -4.94943  18.507602  112.695174  60.159863  33.13957  -23.029656  -7.400611  -99.041849  85.357713  33.292022  13.91518  10.790184  14.26046  3.402192  7.969707  10.75925  2.282609  
